<svg xmlns="http://www.w3.org/2000/svg" version="1.1" xmlns:xlink="http://www.w3.org/1999/xlink" width="512" height="512" x="0" y="0" viewBox="0 0 100 100" style="enable-background:new 0 0 512 512" xml:space="preserve" class=""><g><path d="M77.6 52.9H69V50c0-.8-.7-1.5-1.5-1.5h-50c-.8 0-1.5.7-1.5 1.5v27.2c0 7.9 6.4 14.3 14.3 14.3h24.4c7.7 0 14.1-6.2 14.3-13.9h8.6c3.5 0 6.4-2.9 6.4-6.4v-12c0-3.5-2.9-6.3-6.4-6.3zm-8.6 8h7v8.7h-7zm-3 16.3c0 6.2-5.1 11.3-11.3 11.3H30.3c-6.2 0-11.3-5.1-11.3-11.3V51.5h47zm15-5.9c0 1.9-1.5 3.4-3.4 3.4H69v-2h8.5c.8 0 1.5-.7 1.5-1.5V59.4c0-.8-.7-1.5-1.5-1.5H69v-2h8.6c1.9 0 3.4 1.5 3.4 3.4zM31.5 28.6c3.2 3.2 3.8 8.1 1.4 11.9-.4.6-.3 1.3.2 1.8.3.3.7.4 1.1.4.3 0 .5-.1.8-.2.9-.5 1.7-1.2 2.4-1.9 2.6-2.6 4-6.3 3.7-10-.2-3-1.6-5.9-3.7-8-3.2-3.2-3.8-8.1-1.4-11.9.4-.6.3-1.3-.2-1.8s-1.2-.6-1.8-.2c-.9.5-1.7 1.2-2.4 1.9-2.6 2.6-4 6.3-3.7 10 .2 3 1.5 5.9 3.6 8zm.1-12.8c0 3.3 1.3 6.6 3.7 9.1 1.6 1.6 2.6 3.8 2.8 6.1.1 1.6-.1 3.2-.8 4.6 0-3.3-1.3-6.6-3.7-9.1-1.6-1.6-2.6-3.8-2.8-6.1-.1-1.6.2-3.2.8-4.6zM48.3 32.7c2.8 2.8 3.3 7.1 1.3 10.5-.4.6-.3 1.3.2 1.8.3.3.7.4 1.1.4.3 0 .5-.1.8-.2.8-.5 1.5-1.1 2.2-1.7 2.4-2.4 3.6-5.7 3.4-9.1-.2-2.8-1.4-5.3-3.4-7.3-2.8-2.8-3.3-7.1-1.3-10.5.4-.6.3-1.3-.2-1.8s-1.2-.6-1.8-.2c-.8.5-1.5 1.1-2.2 1.7-2.4 2.4-3.6 5.7-3.4 9.1.1 2.8 1.3 5.4 3.3 7.3zm0-10.8c.2 2.7 1.3 5.4 3.4 7.5 1.4 1.4 2.3 3.4 2.5 5.4.1 1.2-.1 2.3-.4 3.4-.2-2.7-1.3-5.4-3.4-7.5-1.4-1.4-2.3-3.4-2.5-5.4-.1-1.2 0-2.4.4-3.4z" fill="#5f8b6e" opacity="1" data-original="#000000" class=""></path></g></svg>